<svg xmlns="http://www.w3.org/2000/svg" viewBox="0 0 192 192" role="img" aria-label="Zokko ťlťphant couleurs Guinťe">
  <defs>
    <linearGradient id="gn" x1="0%" y1="0%" x2="100%" y2="100%">
      <stop offset="0%" stop-color="#CE1126"/>
      <stop offset="50%" stop-color="#FCD116"/>
      <stop offset="100%" stop-color="#009460"/>
    </linearGradient>
  </defs>
  <rect width="192" height="192" rx="40" fill="#FAF8F5"/>
  <!-- Stylized elephant head (Zokko mascot) -->
  <g fill="url(#gn)" stroke="#1A2E22" stroke-width="3" stroke-linejoin="round">
    <path d="M96 28c-22 0-40 14-44 36-6 2-14 10-14 22 0 8 6 14 12 14 2 0 4-1 6-2-2 8 2 18 10 24 6 5 14 8 22 8h16c8 0 16-3 22-8 8-6 12-16 10-24 2 1 4 2 6 2 6 0 12-6 12-14 0-12-8-20-14-22-4-22-22-36-44-36z"/>
    <ellipse cx="78" cy="72" rx="6" ry="8" fill="#1A2E22" stroke="none"/>
    <ellipse cx="114" cy="72" rx="6" ry="8" fill="#1A2E22" stroke="none"/>
    <path d="M72 108c-8 12-4 28 8 36M120 108c8 12 4 28-8 36" fill="none" stroke-width="5" stroke-linecap="round"/>
    <path d="M88 100c4 14 12 22 24 22s20-8 24-22" fill="none" stroke-width="4" stroke-linecap="round"/>
  </g>
</svg>
